<?xml version="1.0" encoding="utf-8"?>
<!-- Generator: Adobe Illustrator 26.1.0, SVG Export Plug-In . SVG Version: 6.00 Build 0)  -->
<svg version="1.1" id="Слой_1" xmlns="http://www.w3.org/2000/svg" xmlns:xlink="http://www.w3.org/1999/xlink" x="0px" y="0px"
	 viewBox="0 0 24 24" style="enable-background:new 0 0 24 24;" xml:space="preserve">
<style type="text/css">
	.st0{fill:#313131;}
</style>
<path class="st0" d="M12,0C5.4,0,0,5.4,0,12s5.4,12,12,12s12-5.4,12-12S18.6,0,12,0z M16.1,12.8L12,16.5l-4.1-3.7
	c-0.6-0.5-0.9-1.2-0.9-2C7,9.3,8.1,8,9.7,8c1,0,1.7,0.6,2.3,1.1C12.5,8.5,13.3,8,14.3,8c1.6,0,2.7,1.3,2.7,2.8
	C17,11.6,16.6,12.3,16.1,12.8z"/>
</svg>
